<?xml version="1.0" encoding="UTF-8" standalone="no"?>
<svg
   xmlns:dc="http://purl.org/dc/elements/1.1/"
   xmlns:cc="http://creativecommons.org/ns#"
   xmlns:rdf="http://www.w3.org/1999/02/22-rdf-syntax-ns#"
   xmlns:svg="http://www.w3.org/2000/svg"
   xmlns="http://www.w3.org/2000/svg"
   width="114.48087mm"
   height="88.496956mm"
   viewBox="0 0 114.48087 88.496954"
   version="1.1"
   id="svg8">
  <defs
     id="defs2" />
  <metadata
     id="metadata5">
    <rdf:RDF>
      <cc:Work
         rdf:about="">
        <dc:format>image/svg+xml</dc:format>
        <dc:type
           rdf:resource="http://purl.org/dc/dcmitype/StillImage" />
        <dc:title></dc:title>
      </cc:Work>
    </rdf:RDF>
  </metadata>
  <g
     id="layer1"
     transform="translate(-2456.9744,-966.61253)">
    <path
       id="path1603"
       style="color:#000000;font-style:normal;font-variant:normal;font-weight:normal;font-stretch:normal;font-size:medium;line-height:normal;font-family:sans-serif;font-variant-ligatures:normal;font-variant-position:normal;font-variant-caps:normal;font-variant-numeric:normal;font-variant-alternates:normal;font-variant-east-asian:normal;font-feature-settings:normal;font-variation-settings:normal;text-indent:0;text-align:start;text-decoration:none;text-decoration-line:none;text-decoration-style:solid;text-decoration-color:#000000;letter-spacing:normal;word-spacing:normal;text-transform:none;writing-mode:lr-tb;direction:ltr;text-orientation:mixed;dominant-baseline:auto;baseline-shift:baseline;text-anchor:start;white-space:normal;shape-padding:0;shape-margin:0;inline-size:0;clip-rule:nonzero;display:inline;overflow:visible;visibility:visible;isolation:auto;mix-blend-mode:normal;color-interpolation:sRGB;color-interpolation-filters:linearRGB;solid-color:#000000;solid-opacity:1;vector-effect:none;fill:#000000;fill-opacity:1;fill-rule:evenodd;stroke:none;stroke-width:4;stroke-linecap:round;stroke-linejoin:round;stroke-miterlimit:4;stroke-dasharray:none;stroke-dashoffset:0;stroke-opacity:1;color-rendering:auto;image-rendering:auto;shape-rendering:auto;text-rendering:auto;enable-background:accumulate;stop-color:#000000"
       d="m 2524.362,966.61256 c -0.01,1.5e-4 -0.012,2.7e-4 -0.018,5.3e-4 -1.0892,0.0205 -1.9618,0.90887 -1.9626,1.99833 v 8.18555 h -27.9193 c -5.708,0 -10.3658,4.6574 -10.3658,10.36526 v 15.67807 c 0,5.6925 4.6328,10.3392 10.3198,10.3643 v 13.8968 c 3e-4,1.6949 1.9764,2.6213 3.2794,1.5374 l 18.5364,-15.4332 h 10.39 c 5.7079,0 10.3653,-4.6572 10.3653,-10.3653 2e-4,-1.1046 -0.8952,-2.0003 -1.9999,-2.0004 -1.1047,1e-4 -2.0001,0.8958 -1.9999,2.0004 0,3.5611 -2.8046,6.365 -6.3655,6.365 h -10.4257 c -0.061,0 0,0 -0.1835,0 -0.1267,-8e-4 -0.3206,0 -0.4831,0 -0.4574,0.01 -0.8986,0.1269 -1.2501,0.4196 l -15.8631,13.2111 v -9.6304 h 2.3911 c 1.1046,-10e-5 2.0001,-0.8957 1.9999,-2.0004 -1e-4,-1.1045 -0.8955,-1.9998 -1.9999,-1.9999 h -6.3454 c -3.5612,0 -6.3655,-2.8038 -6.3655,-6.365 v -15.67809 c 0,-3.56118 2.8042,-6.36498 6.3655,-6.36498 h 29.5279 c 0.1312,-2e-5 0.2599,-4e-5 0.3912,0 1.1047,-7e-5 2.0001,-0.85697 1.9999,-1.96164 3e-4,-0.0127 5e-4,-0.0255 5e-4,-0.0382 2e-4,-0.0205 0,-0.041 -5e-4,-0.0615 v -5.857 l 16.0156,13.33562 -16.0156,13.33406 v -5.95467 c -1e-4,-1.10452 -0.8954,-2.00028 -1.9999,-2.00039 h -8.7462 c -1.1046,0 -1.9999,0.89582 -1.9999,2.00039 0,1.10457 0.8953,1.99988 1.9999,1.99988 h 6.7464 v 8.22272 c 5e-4,1.6947 1.9759,2.6205 3.2788,1.5369 l 21.1228,-17.58653 c 0.01,-0.005 0.012,-0.01 0.018,-0.015 0.094,-0.0779 0.1799,-0.16424 0.2578,-0.25786 0.6169,-0.7413 0.6169,-1.8172 0,-2.5585 -2e-4,-2.7e-4 -8e-4,-5.3e-4 -10e-4,-10e-4 -0.012,-0.0167 -0.166,-0.17328 -0.2569,-0.25683 l -21.1408,-17.60357 c -0.3645,-0.3028 -0.8247,-0.46634 -1.2986,-0.46147 z m -21.1264,24.97936 c -1.1046,7e-5 -2.0001,0.89572 -1.9998,2.00039 0,1.10448 0.8954,1.99982 1.9998,1.99988 h 0.2439 c 1.1047,2.2e-4 2.0004,-0.8952 2.0004,-1.99988 3e-4,-1.10487 -0.8955,-2.00061 -2.0004,-2.00039 z m 5.6757,0 c -1.1047,7e-5 -2.0001,0.89572 -1.9999,2.00039 0,1.10448 0.8954,1.99982 1.9999,1.99988 h 1.2934 c 1.1045,-7e-5 1.9998,-0.8954 1.9999,-1.99988 2e-4,-1.10467 -0.8952,-2.00032 -1.9999,-2.00039 z" />
    <path
       id="path1693"
       style="color:#000000;font-style:normal;font-variant:normal;font-weight:bold;font-stretch:normal;font-size:medium;line-height:1.25;font-family:Comfortaa;-inkscape-font-specification:'Comfortaa Bold';font-variant-ligatures:normal;font-variant-position:normal;font-variant-caps:normal;font-variant-numeric:normal;font-variant-alternates:normal;font-variant-east-asian:normal;font-feature-settings:normal;font-variation-settings:normal;text-indent:0;text-align:start;text-decoration:none;text-decoration-line:none;text-decoration-style:solid;text-decoration-color:#000000;letter-spacing:0px;word-spacing:normal;text-transform:none;writing-mode:lr-tb;direction:ltr;text-orientation:mixed;dominant-baseline:auto;baseline-shift:baseline;text-anchor:start;white-space:normal;shape-padding:0;shape-margin:0;inline-size:0;clip-rule:nonzero;display:inline;overflow:visible;visibility:visible;isolation:auto;mix-blend-mode:normal;color-interpolation:sRGB;color-interpolation-filters:linearRGB;solid-color:#000000;solid-opacity:1;vector-effect:none;fill:#000000;fill-opacity:1;fill-rule:nonzero;stroke:none;stroke-width:3.06787;stroke-linecap:butt;stroke-linejoin:miter;stroke-miterlimit:4;stroke-dasharray:none;stroke-dashoffset:0;stroke-opacity:1;color-rendering:auto;image-rendering:auto;shape-rendering:auto;text-rendering:auto;enable-background:accumulate;stop-color:#000000"
       d="m 430.66211,502.08594 0.0449,0.0273 c -1.58551,0 -3.09031,0.56005 -4.22265,1.61719 h -0.0371 v 0.0371 c -1.09871,1.09908 -1.6543,2.63117 -1.6543,4.25976 v 20.08594 c -1.58098,-1.42186 -3.03314,-2.99123 -5.01172,-3.9414 -3.07351,-1.5326 -6.43786,-2.30274 -10.02539,-2.30274 -4.43981,0 -8.50868,1.14818 -12.07617,3.42383 -3.53953,2.20157 -6.37293,5.25135 -8.43164,9.06641 -2.01676,3.78935 -3.01172,8.09829 -3.01172,12.83593 0,4.75729 1.09442,9.1091 3.29297,12.95703 2.24239,3.81733 5.27074,6.88431 9.03515,9.13086 3.84454,2.19666 8.17251,3.29297 12.875,3.29297 4.70287,0 9.00059,-1.09883 12.79297,-3.30078 3.76101,-2.24466 6.76856,-5.31467 8.95313,-9.13086 2.26053,-3.84945 3.38867,-8.20699 3.38867,-12.9707 V 507.998 c 0,-1.6286 -0.54778,-3.16068 -1.64649,-4.25977 -1.0987,-1.09871 -2.6374,-1.65234 -4.26562,-1.65234 z m -183.86719,0.0273 c -1.54356,0 -3.01683,0.58167 -4.08984,1.6543 -1.03673,1.03672 -1.56641,2.48101 -1.56641,4 0,1.51937 0.51651,2.97065 1.52149,4.05273 l 0.0449,0.0449 0.0391,0.0391 c 1.08208,1.0046 2.53374,1.52734 4.05274,1.52734 h 17.02148 v 52.83984 c 0,1.60857 0.61192,3.13574 1.73633,4.25977 1.12403,1.12403 2.65706,1.74219 4.26562,1.74219 1.60857,0 3.13536,-0.61816 4.25977,-1.74219 1.12403,-1.12403 1.74219,-2.6512 1.74219,-4.25977 v -52.83984 h 16.93359 c 1.51899,0 2.96523,-0.52811 4.00195,-1.56445 1.07263,-1.07301 1.65235,-2.5541 1.65235,-4.09766 0,-1.52126 -0.59459,-2.96321 -1.66797,-3.98633 -1.02236,-1.073 -2.46507,-1.66797 -3.98633,-1.66797 h -16.93359 -12.00391 z m 266.55274,0 c -1.58514,0 -3.09383,0.56844 -4.17969,1.6543 -1.05033,1.05071 -1.56445,2.52776 -1.56445,4.08984 v 58.66992 c 0,1.56208 0.51184,3.03946 1.52929,4.13477 l 0.0371,0.0449 0.0371,0.0391 c 1.09531,1.01745 2.5805,1.52735 4.14258,1.52735 1.56208,0 3.03756,-0.51412 4.08789,-1.56446 1.08624,-1.08585 1.6543,-2.59417 1.6543,-4.17968 v -12.4375 l 2.5625,-2.28907 15.32422,18.95704 c 0.95811,1.17845 2.3451,1.91861 3.83007,2.00781 1.49707,0.13606 2.99569,-0.31369 4.17188,-1.26953 1.19849,-0.98759 1.9849,-2.33685 2.08203,-3.8086 0.14362,-1.46343 -0.31501,-2.93167 -1.26367,-4.09765 l -15.70117,-19.31836 14.68359,-13.10938 c 1.08548,-1.01367 1.77887,-2.34685 1.85937,-3.77929 0.0794,-1.43925 -0.50529,-2.84327 -1.51367,-3.93555 -0.97474,-1.11269 -2.33886,-1.81081 -3.80078,-1.88867 -1.4502,-0.0794 -2.86878,0.5046 -3.96484,1.52734 l -18.29102,16.32031 v -31.51953 c 0,-1.56283 -0.58879,-3.03749 -1.67578,-4.07422 -1.03672,-1.08661 -2.50552,-1.66992 -4.06836,-1.66992 z m 96.80468,1.11524 c -1.92529,0 -3.73369,0.78019 -5.12304,2.16992 -1.34476,1.34475 -2.08203,3.12914 -2.08203,5.03515 0,1.90602 0.73544,3.69835 2.06054,5.09375 l 0.0371,0.0371 0.0391,0.0371 c 1.39541,1.32548 3.18579,2.05274 5.0918,2.05274 1.90564,0 3.6904,-0.73728 5.03516,-2.08203 1.38935,-1.38974 2.16992,-3.19776 2.16992,-5.12305 0,-1.90753 -0.7851,-3.68536 -2.16992,-5.01953 -1.33531,-1.39276 -3.12196,-2.18555 -5.03516,-2.18555 z m -293.25976,18.46875 c -3.67484,0 -7.1099,0.8682 -10.20117,2.59961 -1.25254,0.7011 -1.97135,1.95871 -3.02735,2.87109 -0.15874,-1.26954 -0.39129,-2.5372 -1.26172,-3.36719 -1.04655,-1.09757 -2.56659,-1.58594 -4.23828,-1.58594 -1.65165,0 -3.18732,0.48616 -4.26562,1.56446 -1.0783,1.07792 -1.56641,2.61592 -1.56641,4.26758 v 38.39257 c 0,1.69739 0.4745,3.25538 1.56641,4.34766 l 0.0371,0.0391 0.0371,0.0371 c 1.09039,1.00611 2.59254,1.43945 4.22265,1.43945 1.68529,0 3.22809,-0.47652 4.27539,-1.59375 1.06205,-1.07678 1.55664,-2.59872 1.55664,-4.23828 v -25.10547 c 0,-2.29152 0.66993,-3.99749 2.04493,-5.42578 1.47628,-1.47326 3.48885,-2.51989 6.18554,-3.10156 2.6691,-0.57676 5.73781,-0.53471 9.24219,0.17773 h -0.0371 c 0.9086,0.20788 1.81342,0.26226 2.67969,0.10352 0.87534,-0.15874 1.70356,-0.54806 2.36914,-1.13086 0.77669,-0.68976 1.26976,-1.64731 1.49805,-2.68555 0.26456,-1.0628 0.18677,-2.20803 -0.30079,-3.18164 -0.48604,-0.97247 -1.30783,-1.74338 -2.31054,-2.38476 -2.06665,-1.41808 -4.89326,-1.98633 -8.49024,-1.98633 z m 257.64453,0.10156 -0.0312,0.0684 c -4.75124,0 -9.0535,1.09731 -12.79297,3.30078 -3.72397,2.13883 -6.68696,5.16787 -8.81445,8.99805 -2.08441,3.80069 -3.11524,8.19542 -3.11524,13.10351 0,4.86577 1.09883,9.27725 3.30078,13.13086 2.25147,3.77235 5.35129,6.78456 9.23438,8.96875 3.96208,2.13392 8.47479,3.18945 13.44336,3.18945 2.82331,0 5.73922,-0.52325 8.73828,-1.54297 3.04176,-1.01555 5.63327,-2.34986 7.74414,-4.02343 1.24876,-0.96114 2.05064,-2.4301 1.96484,-3.95703 -0.0832,-1.488 -0.86999,-2.84616 -2.06054,-3.89649 -1.01632,-0.86097 -2.351,-1.267 -3.69727,-1.20312 -1.28768,0 -2.54248,0.44111 -3.61133,1.22461 -0.97247,0.72945 -2.35719,1.44984 -4.13281,2.09765 -1.68869,0.58054 -3.31595,0.86328 -4.91015,0.86328 -3.03988,0 -5.64767,-0.65813 -7.91993,-1.94921 -2.29984,-1.30659 -4.05959,-3.041 -5.35937,-5.27735 -0.52384,-0.90066 -0.47688,-2.10131 -0.78906,-3.10742 h 30.21289 c 1.45209,0 2.84438,-0.48078 3.87695,-1.43359 l 0.0371,-0.0371 0.0371,-0.0371 c 1.00838,-1.00914 1.5664,-2.40211 1.5664,-3.83985 0,-1.67773 -0.74519,-2.93678 -0.9746,-4.48828 l 0.19921,-0.13281 h -0.23047 c -0.42028,-2.75376 -0.56473,-5.65927 -1.72656,-7.98633 -1.776,-3.72888 -4.43116,-6.69678 -7.87695,-8.79101 -3.47679,-2.17172 -7.61871,-3.24219 -12.3125,-3.24219 z m -221.08789,0.0273 0.0352,0.041 c -4.7093,0 -9.04263,1.13784 -12.88868,3.39648 -3.76781,2.18986 -6.80876,5.23308 -9.05078,9.05078 -2.19855,3.84756 -3.29883,8.19817 -3.29883,12.95508 0,4.73764 0.9995,9.06902 3.01172,12.91016 2.06211,3.76063 4.88764,6.80215 8.42188,9.05664 3.56674,2.21367 7.62987,3.32226 12.0625,3.32226 4.43263,0 8.49614,-1.10859 12.0625,-3.32226 1.25707,-0.80202 1.89794,-2.2253 2.96679,-3.22461 v 0.38281 c 0,1.58514 0.56044,3.09812 1.61719,4.23047 l 0.0371,0.0371 0.0371,0.0391 c 1.13235,1.05714 2.63715,1.60938 4.22266,1.60938 1.58513,0 3.09187,-0.56063 4.17773,-1.64649 1.12441,-1.12403 1.74219,-2.65939 1.74219,-4.26758 v -17.61914 -1.53711 -1.0039 l -0.29492,-0.12305 c -0.17764,-4.28409 -1.03561,-8.32759 -3.09961,-11.8418 -2.18457,-3.81618 -5.19615,-6.86281 -8.96094,-9.05078 -3.792,-2.26129 -8.09376,-3.39453 -12.80078,-3.39453 z m 295.21484,0.0195 0.0586,0.0215 c -4.86048,0 -9.23673,1.09101 -13.03516,3.29297 -3.78293,2.13543 -6.8109,5.1593 -9,8.99023 -2.14639,3.80258 -3.20312,8.21086 -3.20312,13.125 0,4.85934 1.05767,9.26547 3.19726,13.11719 2.1891,3.7697 5.20491,6.78746 8.97461,8.97656 3.79956,2.14526 8.17739,3.20508 13.03711,3.20508 4.85934,0 9.23717,-1.0602 13.03711,-3.20508 3.77272,-2.19061 6.76212,-5.21297 8.89453,-8.99023 2.13997,-3.85172 3.19727,-8.25785 3.19727,-13.11719 0,-4.91188 -1.0914,-9.31883 -3.29297,-13.11914 -2.13052,-3.83055 -5.12358,-6.86262 -8.90235,-8.99805 -3.79691,-2.20309 -8.15419,-3.29883 -12.96289,-3.29883 z m -194.70312,0.25196 0.0273,0.0293 c -1.60857,0 -3.14121,0.61621 -4.26562,1.74024 -1.08586,1.08586 -1.6543,2.59417 -1.6543,4.17969 v 21.12695 c 0,4.944 0.92507,9.2249 2.84961,12.76367 1.95666,3.4851 4.63974,6.2048 7.98047,8.06055 3.38381,1.78431 7.20063,2.66406 11.36718,2.66406 4.05241,0 7.73568,-0.88744 10.95508,-2.67969 1.08246,-0.59301 1.63406,-1.7003 2.56836,-2.44336 0.22299,1.08095 0.39871,2.20404 1.15235,3.01172 l 0.0371,0.0391 0.0371,0.0371 c 1.13235,1.05676 2.63715,1.61719 4.22266,1.61719 1.62822,0 3.16887,-0.55559 4.26758,-1.6543 l 0.0371,-0.0371 c 1.05713,-1.13272 1.61719,-2.63752 1.61719,-4.22265 v -38.3125 c 0,-1.6286 -0.55364,-3.16925 -1.65235,-4.26758 -1.09871,-1.09871 -2.63936,-1.65234 -4.26758,-1.65234 -1.58551,0 -3.09031,0.55847 -4.22265,1.61523 l -0.0371,0.0391 c -1.09871,1.09833 -1.6543,2.63703 -1.6543,4.26563 v 22.68554 1.53516 c 0,1.77751 -0.47026,3.30023 -1.44726,4.7168 -0.9944,1.44189 -2.31624,2.57608 -4.0586,3.44726 -1.64863,0.84926 -3.57187,1.29297 -5.83203,1.29297 -2.37808,0 -4.44824,-0.44264 -6.2832,-1.30664 -1.79225,-0.89953 -3.17353,-2.2051 -4.23633,-4.02344 -1.03408,-1.82891 -1.59375,-4.21219 -1.59375,-7.2207 v -21.12695 c 0,-1.58892 -0.63265,-3.09106 -1.75781,-4.16406 -1.07263,-1.12177 -2.56998,-1.75586 -4.15625,-1.75586 z m 156.20508,0.0723 -0.0137,0.0449 c -1.58551,0 -3.09031,0.5581 -4.22265,1.61524 h -0.0371 v 0.0391 c -1.09871,1.09871 -1.6543,2.63155 -1.6543,4.25977 v 42.4375 c 0,1.9971 -0.44825,3.67221 -1.32812,5.13867 -0.84435,1.48913 -1.97338,2.61659 -3.46289,3.46094 h -0.0371 c -1.46004,0.87609 -3.15778,1.32812 -5.21875,1.32812 -1.58514,0 -3.09188,0.56844 -4.17774,1.6543 -1.09871,1.09871 -1.65429,2.63936 -1.65429,4.26758 0,1.57719 0.57158,3.06409 1.64648,4.14843 1.07376,1.13651 2.5887,1.76367 4.18555,1.76367 4.22702,0 8.03124,-0.94706 11.3164,-2.86328 3.25796,-1.84403 5.85217,-4.43767 7.69922,-7.69336 1.92151,-3.28554 2.87891,-7.06908 2.87891,-11.25 v -42.4375 c 0,-1.62822 -0.55559,-3.16105 -1.6543,-4.25976 -1.09871,-1.09871 -2.6374,-1.6543 -4.26562,-1.6543 z m -35.66016,10.1582 c 2.62828,0 4.73476,0.58565 6.45898,1.71876 1.76958,1.16296 3.11725,2.72739 4.09766,4.79101 0.42369,0.8708 0.41827,2.0453 0.67188,3.03516 h -24.02149 c 0.23055,-0.7389 0.17011,-1.6715 0.50195,-2.34766 1.08662,-2.27679 2.62054,-3.99879 4.66602,-5.2793 2.07572,-1.26198 4.56811,-1.91015 7.60156,-1.91015 z m -221.05859,0.32422 0.0371,0.0156 c 2.67023,0 4.96378,0.64162 7.00585,1.91797 2.05531,1.23326 3.65075,2.91889 4.84961,5.16015 1.18375,2.16227 1.78516,4.63311 1.78516,7.50782 0,2.8131 -0.59939,5.29005 -1.79297,7.52148 -1.19471,2.17814 -2.7938,3.87424 -4.85742,5.16797 -2.04246,1.22419 -4.34174,1.8457 -7.01953,1.8457 -2.60939,0 -4.91364,-0.61622 -7.02149,-1.8457 -2.064,-1.29411 -3.70096,-2.99934 -4.95312,-5.18164 -1.18828,-2.22803 -1.78516,-4.70038 -1.78516,-7.50781 0,-2.87207 0.60368,-5.33887 1.78516,-7.5 1.25669,-2.24958 2.88893,-3.94026 4.94726,-5.17579 2.11125,-1.2873 4.41204,-1.92578 7.01954,-1.92578 z m 295.26171,0.002 0.0137,0.0137 c 2.74167,0 5.07775,0.62189 7.11718,1.8457 2.0504,1.23024 3.60544,2.9068 4.7461,5.13672 v 0.0371 c 1.18148,2.15811 1.78515,4.66172 1.78515,7.59766 0,2.93593 -0.60367,5.43759 -1.78515,7.5957 -1.1384,2.17323 -2.69558,3.82968 -4.75391,5.06445 -2.03943,1.22381 -4.37356,1.84375 -7.11523,1.84375 -2.74205,0 -5.07776,-0.61994 -7.11719,-1.84375 -2.06324,-1.23779 -3.65301,-2.90918 -4.84961,-5.09375 -1.18148,-2.15811 -1.78711,-4.65976 -1.78711,-7.5957 0,-2.93594 0.60563,-5.43955 1.78711,-7.59766 1.19887,-2.24088 2.78649,-3.92532 4.8418,-5.1582 2.03943,-1.22343 4.37514,-1.8457 7.11718,-1.8457 z m -237.27734,0.006 0.0371,0.008 c 2.67024,0 4.95597,0.64162 6.99805,1.91797 2.06324,1.23817 3.65339,2.90175 4.84961,5.08594 1.18412,2.16264 1.78711,4.64091 1.78711,7.51562 0,2.81348 -0.59902,5.29005 -1.79297,7.52148 -1.19887,2.24202 -2.80199,3.96402 -4.86524,5.25586 -2.03905,1.21852 -4.33411,1.83789 -7.00586,1.83789 -2.60938,0 -4.91169,-0.61427 -7.01953,-1.84375 -2.06097,-1.29222 -3.69794,-3.02644 -4.95312,-5.27148 -1.18602,-2.22614 -1.78711,-4.69521 -1.78711,-7.5 0,-2.86602 0.60235,-5.33446 1.77929,-7.49219 1.25405,-2.19099 2.888,-3.87007 4.95313,-5.10937 2.11124,-1.28731 4.41203,-1.92578 7.01953,-1.92578 z"
       transform="matrix(0.26458333,0,0,0.26458333,2393.1731,898.38934)" />
    <text
       xml:space="preserve"
       style="font-size:4.15083px;line-height:1.25;font-family:sans-serif;letter-spacing:0px;stroke-width:0.148244"
       x="2459.1443"
       y="1067.8328"
       id="text1664"><tspan
         id="tspan1662"
         x="2459.1443"
         y="1067.8328"
         style="stroke-width:0.148244">tiparo: https://fonts.google.com/specimen/Comfortaa</tspan></text>
  </g>
</svg>
